<?xml version="1.0" encoding="UTF-8" standalone="no"?>
<svg
   width="771.93188"
   height="756.91962"
   version="1.1"
   id="svg30"
   xmlns="http://www.w3.org/2000/svg"
   xmlns:svg="http://www.w3.org/2000/svg">
  <defs
     id="defs30" />
  <g
     id="g15"
     transform="translate(-128.58887,-129.86)">
    <path
       fill="#011938"
       d="m 513.906,129.86 c 10.336,8.827 22.454,23.997 30.035,35.491 10.976,16.642 19.695,37.45 15.376,57.726 -2.887,13.552 -11.492,22.699 -22.85,30.053 6.024,-1.65 12.26,-2.802 18.367,-4.125 -4.499,8.029 -9.463,13.284 -16.918,18.666 3.466,6.92 5.851,13.686 7.402,21.268 q 0.614,-0.832 1.264,-1.637 0.649,-0.805 1.332,-1.582 0.684,-0.776 1.399,-1.523 0.716,-0.747 1.463,-1.462 0.747,-0.715 1.524,-1.398 0.776,-0.683 1.582,-1.332 0.805,-0.65 1.637,-1.264 0.832,-0.614 1.69,-1.192 0.858,-0.578 1.739,-1.119 0.882,-0.541 1.785,-1.044 0.904,-0.503 1.829,-0.967 0.924,-0.463 1.868,-0.887 0.943,-0.424 1.904,-0.808 0.96,-0.383 1.936,-0.725 0.977,-0.342 1.966,-0.642 0.99,-0.3 1.992,-0.557 1.42,-0.346 2.856,-0.623 1.436,-0.277 2.883,-0.484 1.447,-0.206 2.903,-0.343 1.455,-0.136 2.916,-0.201 1.46,-0.066 2.922,-0.06 1.462,0.005 2.922,0.082 1.46,0.077 2.915,0.224 1.454,0.147 2.9,0.365 1.445,0.218 2.879,0.506 1.433,0.288 2.851,0.645 1.418,0.357 2.816,0.782 1.399,0.426 2.775,0.919 1.377,0.493 2.728,1.052 1.35,0.559 2.672,1.183 1.322,0.624 2.613,1.312 1.29,0.688 2.545,1.437 -2.724,-0.113 -5.449,-0.156 c -15.508,-0.2 -35.429,3.974 -46.865,15.234 -10.332,10.174 -10.508,22.947 -10.515,36.55 2.716,-10.972 6.419,-21.454 14.139,-29.966 9.45,-10.42 22.198,-14.883 36.089,-14.788 23.894,0.165 45.957,9.526 64.861,23.685 8.646,6.475 16.744,13.664 25.417,20.108 10.837,8.052 23.078,15.473 35.454,20.857 6.695,2.913 14.704,5.837 22.144,5.308 13.096,-0.932 10.136,-15.738 16.851,-22.999 1.643,-1.777 3.737,-2.787 6.166,-2.866 3.315,-0.109 7.28,1.283 9.699,3.572 2.883,2.728 3.799,6.906 3.785,10.744 -0.021,5.804 -2.964,10.859 -7.034,14.821 -6.857,6.675 -17.09,9.562 -26.444,9.921 -55.387,2.127 -92.96,-53.047 -138.088,-53.462 -11.296,-0.103 -25.808,3.412 -34.016,11.718 -0.098,0.099 -0.192,0.203 -0.288,0.304 13.588,-5.768 28.58,-4.207 42.492,-0.508 -26.959,2.18 -39.32,11.567 -57.455,30.404 18.077,-7.179 29.436,-19.358 49.46,-23.438 9.979,-2.033 20.026,-2.099 29.958,0.237 12.075,2.84 23.199,8.915 34.064,14.707 27.373,14.593 57.912,31.342 90.021,22.969 9.945,-2.593 18.97,-8.86 24.191,-17.825 3.885,-6.671 5.189,-14.741 3.038,-22.217 -1.626,-5.65 -5.238,-10.735 -10.491,-13.514 -4.127,-2.183 -9.404,-2.992 -13.871,-1.386 -11.241,4.041 -8.242,15.919 -12.686,24.273 -1.086,2.042 -2.702,3.895 -5.018,4.499 -2.405,0.627 -5.552,-0.001 -7.653,-1.285 -3.87,-2.365 -6.01,-7.738 -6.759,-12.01 -1.409,-8.038 1.491,-18.067 6.178,-24.637 5.374,-7.532 13.999,-12.331 23.062,-13.765 q 1.052,-0.168 2.111,-0.284 1.059,-0.116 2.123,-0.179 1.063,-0.063 2.128,-0.073 1.066,-0.01 2.13,0.032 1.065,0.043 2.126,0.138 1.061,0.095 2.116,0.243 1.055,0.148 2.101,0.348 1.047,0.2 2.082,0.451 1.035,0.252 2.057,0.554 1.021,0.303 2.026,0.656 1.006,0.352 1.992,0.755 0.987,0.402 1.952,0.853 0.965,0.45 1.907,0.948 0.942,0.498 1.858,1.042 0.916,0.544 1.804,1.133 0.887,0.589 1.745,1.221 0.901,0.67 1.769,1.383 0.867,0.713 1.698,1.467 0.832,0.755 1.626,1.549 0.793,0.794 1.547,1.626 0.754,0.832 1.466,1.7 0.713,0.868 1.382,1.769 0.669,0.902 1.293,1.835 0.624,0.934 1.202,1.896 0.578,0.963 1.108,1.953 0.53,0.989 1.011,2.004 0.481,1.014 0.912,2.051 0.431,1.037 0.811,2.094 0.38,1.056 0.708,2.13 0.327,1.074 0.602,2.163 0.275,1.088 0.496,2.189 0.222,1.101 0.389,2.211 c 2.148,14.031 -1.25,27.776 -9.765,39.129 -10.925,14.566 -26.008,20.692 -43.549,23.26 7.251,18.05 13.526,36.534 20.415,54.729 l 61.997,163.241 c 6.448,16.539 12.401,33.338 19.336,49.676 6.941,-0.124 21.659,-1.847 27.251,2.258 1.504,1.104 2.549,2.621 2.757,4.514 0.302,2.759 -1.157,6.502 -2.998,8.516 -2.546,2.786 -6.439,3.042 -9.961,3.214 -15.355,33.718 -40.025,60.884 -74.835,75.093 -34.639,14.139 -71.944,14.737 -106.449,0.002 -32.7,-13.965 -63.381,-41.973 -76.793,-75.342 -3.633,-0.088 -7.402,0.174 -10.372,-2.293 -2.257,-1.874 -3.369,-4.221 -3.612,-7.131 q -0.038,-0.417 -0.031,-0.836 0.008,-0.419 0.061,-0.834 0.053,-0.416 0.151,-0.823 0.098,-0.407 0.239,-0.801 0.142,-0.395 0.326,-0.771 0.183,-0.376 0.407,-0.731 0.224,-0.354 0.484,-0.682 0.261,-0.328 0.556,-0.625 c 4.568,-4.689 21.39,-2.853 28.053,-2.874 l 68.055,-179.44 c 10.961,-29.27 23.05,-58.382 32.629,-88.139 q -5.307,-0.861 -10.532,-2.126 -5.225,-1.266 -10.337,-2.928 -5.113,-1.662 -10.083,-3.711 -4.97,-2.049 -9.769,-4.473 c -27.495,-13.624 -54.276,-37.891 -87.2,-30.254 -26.454,6.136 -23.37,28.137 -40.585,32.129 -15.371,3.565 -29.49,-3.972 -42.027,-11.833 2.85,3.741 5.566,7.742 6.138,12.539 0.633,5.304 -1.467,9.191 -4.714,13.121 4.487,0.127 8.796,0.781 12.414,3.715 4.269,3.461 4.935,8.387 5.396,13.498 0.462,0.31 0.928,0.614 1.37,0.951 2.99,2.28 5.235,5.887 5.697,9.64 0.491,3.988 -0.871,7.869 -3.348,10.977 -3.983,4.999 -9.213,6.974 -15.338,7.686 -0.898,65.535 -0.468,131.175 -0.362,196.719 0.049,29.933 0.517,59.933 -0.109,89.858 6.621,1.206 13.054,3.102 17.309,8.762 q 0.273,0.363 0.528,0.739 0.255,0.376 0.49,0.764 0.235,0.389 0.45,0.789 0.215,0.4 0.41,0.81 0.195,0.411 0.368,0.83 0.174,0.42 0.326,0.848 0.152,0.428 0.282,0.863 0.131,0.435 0.239,0.876 0.108,0.441 0.193,0.888 0.086,0.446 0.148,0.895 0.063,0.45 0.103,0.903 0.04,0.452 0.057,0.906 0.017,0.454 0.011,0.908 -0.007,0.454 -0.036,0.907 -0.029,0.454 -0.081,0.905 -0.052,0.451 -0.127,0.899 c -1.325,7.66 -7.098,12.815 -13.174,16.958 2.421,4.422 4.027,8.866 5.383,13.716 q 1.129,-0.024 2.258,-0.006 c 4.674,0.086 9.347,1.953 12.54,5.428 2.941,3.202 4.241,7.411 3.855,11.715 -0.464,5.157 -3.102,8.918 -6.961,12.121 9.184,2.039 19.085,5.526 25.595,12.594 6.448,-0.263 12.046,0.115 17.271,4.403 6.596,5.413 9.806,14.154 10.745,22.401 5.189,-0.235 11.685,-1.173 16.283,1.678 4.473,2.774 5.591,8.001 6.624,12.77 7.866,-0.087 16.241,-0.728 24.042,0.21 0.272,3.819 0.239,7.691 0.317,11.521 7.03,-0.114 20.094,-1.775 26.314,1.273 1.527,0.748 1.985,1.527 2.489,3.102 -0.274,1.643 -0.775,2.772 -1.914,4.019 -0.992,1.087 -2.358,1.676 -3.811,1.802 -5.238,0.458 -10.992,-0.097 -16.289,-0.148 q -16.932,-0.191 -33.866,-0.155 l -124.748,-0.052 -126.248,0.129 c -17.157,0.015 -34.466,0.738 -51.6,0.315 -1.951,-0.048 -3.758,-0.222 -5.602,-0.896 -1.227,-1.206 -1.892,-2.282 -2.054,-4.037 -0.131,-1.41 0.17,-3.139 1.245,-4.152 2.495,-2.351 23.058,-1.36 27.774,-1.481 l 0.268,-11.459 q 11.712,-0.206 23.425,-0.226 c 0.708,-3.91 1.609,-7.747 4.495,-10.695 4.812,-4.913 12.711,-3.9 18.987,-3.789 1.184,-8.086 4.165,-16.966 10.886,-22.129 4.965,-3.814 11.278,-5.173 17.418,-4.417 0.131,-0.16 0.261,-0.321 0.394,-0.48 5.919,-7.06 15.876,-10.772 24.893,-11.636 -3.875,-3.296 -6.915,-7.577 -7.28,-12.795 q -0.051,-0.724 -0.031,-1.449 0.021,-0.725 0.113,-1.445 0.092,-0.719 0.255,-1.426 0.163,-0.707 0.395,-1.395 0.232,-0.687 0.53,-1.348 0.299,-0.661 0.662,-1.29 0.362,-0.628 0.785,-1.218 0.423,-0.589 0.902,-1.134 c 4.057,-4.599 9.452,-5.504 15.222,-5.988 1.27,-4.889 3.269,-9.225 5.539,-13.725 -5.777,-3.42 -10.727,-8.116 -12.551,-14.794 -1.309,-4.794 -0.793,-9.915 1.712,-14.235 3.99,-6.883 10.4,-8.835 17.608,-10.643 l 0.068,-286.514 c -1.833,-0.192 -3.729,-0.313 -5.504,-0.83 -4.676,-1.361 -9.003,-4.748 -11.333,-9.034 -1.824,-3.357 -2.538,-7.466 -1.379,-11.16 1.139,-3.631 3.613,-6.219 6.967,-7.862 0.654,-4.387 1.441,-9.039 4.466,-12.488 3.538,-4.032 8.31,-4.506 13.306,-4.955 -2.093,-2.517 -3.936,-5.6 -4.521,-8.858 -1.182,-6.586 3.288,-11.879 6.883,-16.847 -10.359,5.174 -18.786,10.968 -30.72,12.179 -26.602,2.7 -21.963,-13.373 -36.947,-25.242 -6.85,-5.425 -15.311,-8.131 -23.954,-8.714 -30.326,-2.045 -53.386,18.201 -78.93,31.052 -13.046,6.564 -27.169,11.894 -41.762,13.539 q 33.73,92.2 69.093,183.787 l 18.75,49.333 c 4.384,11.658 8.551,23.466 13.599,34.857 6.891,-0.132 23.333,-1.925 28.266,2.286 1.511,1.29 2.409,3.054 2.526,5.039 0.152,2.573 -1.001,5.178 -2.697,7.069 -3.332,3.714 -7.206,3.855 -11.831,4.018 -16.297,35.031 -44.2,62.752 -80.535,76.685 -34.361,13.177 -70.856,12.465 -104.442,-2.598 -31.341,-14.055 -60.404,-41.723 -72.673,-74.158 -2.472,-0.159 -4.919,-0.488 -7.375,-0.798 -0.467,-0.363 -0.917,-0.723 -1.355,-1.12 -2.203,-1.996 -4.094,-4.454 -4.143,-7.555 -0.035,-2.19 0.737,-4.532 2.283,-6.114 4.799,-4.911 21.567,-2.91 28.191,-2.813 4.631,-14.123 10.53,-27.952 15.864,-41.829 l 27.883,-72.614 57.618,-152.822 c -4.865,-0.927 -9.704,-1.858 -14.438,-3.344 q -1.377,-0.418 -2.731,-0.903 -1.354,-0.485 -2.682,-1.037 -1.329,-0.551 -2.628,-1.168 -1.299,-0.617 -2.567,-1.298 -1.267,-0.68 -2.499,-1.423 -1.232,-0.743 -2.425,-1.545 -1.194,-0.803 -2.346,-1.664 -1.153,-0.861 -2.261,-1.778 -1.108,-0.917 -2.17,-1.887 -1.061,-0.971 -2.073,-1.993 -1.012,-1.023 -1.973,-2.094 -0.96,-1.071 -1.866,-2.188 -0.905,-1.118 -1.755,-2.278 -0.849,-1.161 -1.64,-2.363 -0.791,-1.201 -1.521,-2.441 -0.73,-1.239 -1.398,-2.513 c -6.011,-11.623 -6.857,-25.673 -2.828,-38.083 q 0.342,-1.042 0.735,-2.067 0.392,-1.025 0.834,-2.029 0.441,-1.004 0.931,-1.986 0.489,-0.982 1.025,-1.94 0.537,-0.957 1.119,-1.887 0.582,-0.93 1.208,-1.831 0.626,-0.901 1.295,-1.77 0.669,-0.87 1.379,-1.706 0.71,-0.837 1.46,-1.638 0.75,-0.801 1.537,-1.565 0.788,-0.763 1.611,-1.488 0.824,-0.725 1.682,-1.41 0.857,-0.684 1.747,-1.326 0.89,-0.642 1.809,-1.24 0.92,-0.599 1.867,-1.152 0.948,-0.553 1.921,-1.06 c 10.069,-5.122 22.195,-6.559 33.001,-2.957 8.297,2.767 15.752,9.351 19.567,17.249 3.307,6.846 4.542,16.506 1.893,23.718 -1.258,3.425 -4.17,7.153 -7.626,8.566 -2.295,0.939 -5.353,1.04 -7.61,-0.059 -5.891,-2.867 -4.872,-12.751 -6.778,-18.161 -1.423,-4.042 -3.918,-7.634 -7.92,-9.433 -4.114,-1.849 -8.927,-1.71 -13.095,-0.135 -5.092,1.924 -8.971,5.918 -11.143,10.87 -3.037,6.923 -2.635,15.259 0.257,22.153 3.873,9.233 12.246,16.333 21.437,19.949 8.087,3.181 16.85,4.06 25.479,3.66 33.653,-1.563 59.052,-22.46 88.77,-35.072 22.168,-9.407 45.567,-9.052 66.481,3.415 8.434,5.027 16.01,11.196 25.2,14.882 -2.17,-2.568 -4.328,-5.158 -6.575,-7.659 -11.741,-13.061 -29.705,-21.61 -47.2,-22.586 14.557,-3.984 27.914,-4.703 41.953,1.305 -2.723,-2.241 -5.471,-4.356 -8.522,-6.138 -37.245,-21.759 -78.269,13.961 -109.645,31.223 q -3.715,2.079 -7.552,3.922 -3.837,1.843 -7.781,3.444 -3.945,1.601 -7.981,2.954 -4.036,1.352 -8.149,2.451 c -14.357,3.767 -31.34,5.251 -44.657,-2.615 -5.701,-3.369 -10.7,-8.13 -12.257,-14.792 q -0.197,-0.847 -0.307,-1.709 -0.11,-0.863 -0.133,-1.732 -0.022,-0.869 0.043,-1.736 0.066,-0.867 0.219,-1.723 0.153,-0.855 0.391,-1.691 0.239,-0.836 0.561,-1.644 0.322,-0.808 0.723,-1.579 0.402,-0.771 0.88,-1.497 c 1.702,-2.612 4.191,-4.835 7.325,-5.454 1.954,-0.386 3.977,-0.1 5.819,0.623 10.103,3.96 5.147,17.893 14.456,23.35 3.616,2.121 8.431,1.694 12.445,1.121 31.11,-4.439 59.681,-34.872 85.298,-51.285 10.202,-6.536 21.096,-11.492 32.844,-14.5 16.071,-4.114 34.119,-5.74 48.899,3.222 14.152,8.582 20.106,22.158 23.896,37.588 -0.008,-4.276 0.093,-8.624 -0.344,-12.881 -1.061,-10.349 -5.111,-19.53 -13.378,-26.086 -12.868,-10.204 -32.132,-13.339 -48.058,-11.593 11.264,-6.575 22.307,-9.91 35.496,-8.978 14.505,1.025 25.967,8.7 35.313,19.428 2.09,-7.307 4.661,-14.26 7.508,-21.295 -8.518,-4.233 -13.391,-10.116 -17.298,-18.675 5.749,1.995 11.782,3.035 17.711,4.372 -2.91,-2.318 -5.911,-4.61 -8.631,-7.15 q -0.815,-0.754 -1.592,-1.548 -0.776,-0.794 -1.511,-1.626 -0.735,-0.833 -1.428,-1.701 -0.692,-0.868 -1.34,-1.77 -0.648,-0.902 -1.25,-1.835 -0.601,-0.934 -1.155,-1.896 -0.554,-0.963 -1.059,-1.952 -0.504,-0.989 -0.958,-2.002 -0.454,-1.014 -0.857,-2.049 -0.403,-1.035 -0.753,-2.089 -0.349,-1.054 -0.646,-2.124 -0.296,-1.07 -0.538,-2.154 -0.242,-1.083 -0.43,-2.178 -0.187,-1.095 -0.319,-2.197 -0.131,-1.103 -0.208,-2.211 -0.076,-1.108 -0.096,-2.218 c -0.87,-33.467 24.398,-61.695 46.033,-84.429 z m 249.628,530.656 59.05,-0.067 c 11.359,0.009 23.059,0.561 34.376,-0.358 -7.219,-21.44 -16.43,-42.423 -24.456,-63.591 L 782.609,464.696 768.018,426.668 c -1.475,-3.921 -2.576,-9.967 -4.895,-13.29 q 0.731,92.108 0.336,184.219 c 0.006,20.958 -0.314,41.968 0.075,62.919 z m -590.561,-0.018 92.141,-0.049 c 0.886,-58.976 0.261,-118.032 0.27,-177.017 l -0.445,-51.759 c -0.039,-5.432 1.201,-12.055 0.272,-17.31 -6.563,19.823 -14.43,39.234 -21.756,58.784 l -46.093,121.129 -17.886,46.521 c -2.325,6.124 -5.632,12.645 -7.076,18.972 z m 486.177,-0.061 92.385,0.021 -0.065,-179.243 0.1,-47.924 c 0.024,-5.532 1.015,-12.541 0.156,-17.929 -8.446,24.027 -92.86,242.479 -92.576,245.075 z m -499.741,15.298 c 26.397,7.529 55.539,5.925 82.797,6.082 q 39.211,0.256 78.419,-0.237 c 21.448,-0.089 40.235,-0.908 61.277,-5.85 q -80.49,-2.536 -161.013,-1.48 c -11.52,0.086 -23.07,0.021 -34.583,0.413 -8.956,0.306 -17.937,1.079 -26.897,1.072 z M 369.373,660.3 c -3.268,-9.588 -7.211,-18.957 -10.862,-28.404 l -15.685,-41.342 -51.25,-134.849 -11.277,-29.406 c -1.178,-3.12 -2.286,-8.274 -4.154,-10.89 1.676,27.964 0.803,56.218 0.801,84.234 l 0.041,160.8 c 30.721,0.014 61.7,0.909 92.386,-0.143 z m 349.359,13.958 c -22.162,0.14 -44.793,-0.525 -66.826,1.944 17.208,7.092 66.142,5.508 86.359,5.638 20.749,0.135 41.591,0.376 62.331,-0.051 16.797,-0.212 33.938,0.033 50.622,-2.155 6.69,-0.877 13.199,-2.697 19.821,-3.928 -29.899,-1.304 -59.731,-1.47 -89.652,-1.546 -20.875,-0.054 -41.785,-0.236 -62.655,0.098 z M 549.316,864.404 c 7.166,-0.468 47.577,-3.51 50.07,-5.1 -28.389,-2.397 -56.786,-2.665 -85.258,-2.769 -16.528,-0.06 -33.169,-0.412 -49.679,0.188 -11.78,0.395 -23.487,0.969 -35.249,1.711 -4.828,0.305 -10.125,0.182 -14.871,1.079 14.836,1.689 29.307,4.284 44.255,5.292 30.209,2.039 60.52,0.636 90.732,-0.401 z M 494.488,206.77 c 0.753,8.783 3.654,15.307 7.379,23.18 -0.868,-7.48 -1.523,-14.379 -1.32,-21.955 1.522,-11.65 5.008,-21.561 10.688,-31.83 2.197,-3.973 4.904,-7.998 6.523,-12.236 12.136,13.457 21.511,33.144 20.446,51.588 -0.638,11.056 -4.294,19.848 -10.36,28.974 9.346,-8.211 14.81,-18.44 15.628,-30.935 1.443,-22.05 -10.885,-43.629 -25.14,-59.636 -1.466,-1.646 -3.23,-3.913 -5.074,-5.08 -15.356,17.081 -30.752,41.269 -29.585,65.053 1.095,22.314 17.222,38.946 32.865,53.138 -11.083,-20.281 -25.571,-35.345 -22.05,-60.261 z m -20.215,590.552 c 0.874,4.128 2.444,7.911 4.02,11.805 l -2.102,6.56 c 19.068,0.157 42.62,1.739 61.22,-1.921 -9.14,-1.954 -18.818,-3.042 -27.457,-6.758 q -8.245,-3.813 -15.872,-8.746 c 15.102,-2.483 30.619,-6.05 45.395,-10.07 -17.562,-2.276 -39.812,-1.622 -57.673,-1.096 -3.543,1.62 -5.405,4.383 -6.745,7.965 q -0.412,1.124 -0.786,2.261 z m 22.331,-31.495 c -1.427,4.094 -2.921,8.176 -4.118,12.344 4.074,0.249 27.933,1.429 30.213,-0.476 l -2.002,-0.475 c -5.991,-0.706 -10.842,-1.846 -16.416,-4.153 3.446,-0.847 6.794,-1.526 10.319,-1.938 -5.951,-1.612 -12.289,-3 -17.996,-5.302 z m 14.755,-352.481 15.232,-4.641 c -10.312,-1.197 -21.257,-0.578 -31.648,-0.702 l -1.688,4.455 c -1.98,0.53 -4.122,0.815 -5.589,2.334 -0.733,1.525 -1.28,3.244 -0.58,4.895 0.37,0.875 1.381,1.427 2.258,1.674 4.294,1.209 10.068,0.067 14.548,0.061 0.085,-1.919 -0.133,-4.677 1.593,-5.976 1.441,-1.084 4.133,-1.578 5.874,-2.1 z m -38.852,410.38 c -8.817,0.233 -23.14,-1.617 -29.567,4.98 -4.459,4.576 -6.591,10.515 -10.037,15.74 -1.435,0.496 -2.876,0.967 -4.281,1.544 17.834,0.574 35.7,0.087 53.541,0.035 21.924,-0.065 43.856,0.203 65.737,-1.377 -6.484,-1.898 -15.57,-1.666 -22.623,-2.82 -17.663,-2.536 -34.779,-6.364 -52.163,-10.249 24.968,0.31 49.036,-3.662 73.651,-7.148 -14.236,-0.995 -28.573,-0.944 -42.838,-0.97 -10.447,-0.018 -20.988,-0.259 -31.42,0.265 z M 511.44,374.995 c -10.093,-10.598 -19.252,-22.109 -18.782,-37.583 0.348,-11.456 5.599,-22.084 12.094,-31.263 -5.739,13.475 -7.541,27.046 -1.842,40.947 1.506,3.675 3.552,7.38 6.005,10.507 -1.814,-7.206 -2.616,-13.804 -2.282,-21.225 0.805,-8.35 2.404,-16.19 4.668,-24.257 1.664,-5.932 3.804,-12.02 4.687,-18.11 11.654,13.114 22.106,29.585 21.094,47.83 -0.792,14.296 -9.466,22.82 -18.245,33.072 12.086,-7.708 22.361,-15.678 25.556,-30.401 3.016,-13.898 -1.668,-27.948 -9.289,-39.542 -8.981,-13.666 -16.929,-16.46 -27.652,-26.59 -9.121,23.245 -32.532,45.394 -20.863,72.295 4.902,11.302 14.815,17.958 24.851,24.32 z m -11.818,81.078 c -0.748,50.367 -0.12,100.832 -0.115,151.21 0.005,40.043 -0.789,80.25 0.055,120.272 2.146,-0.114 4.281,-0.191 6.407,-0.527 -0.006,-4.313 -0.281,-8.82 0.322,-13.094 l 0.356,0.684 c 0.202,2.814 -0.21,9.761 1.107,11.851 l 0.019,-1.845 0.118,0.127 c 1.887,-35.802 0.847,-72.05 0.839,-107.913 l -0.18,-160.846 z"
       id="path1" />
    <path
       fill="#f3f5f4"
       d="m 216.885,695.22 c 6.42,-0.515 13.03,-0.259 19.478,-0.289 l 33.818,-0.104 c 30.687,-0.024 61.833,-0.532 92.45,1.766 q -19.242,2.714 -38.672,2.968 c -21.556,0.458 -43.148,-0.023 -64.709,0.062 -19.272,0.075 -38.429,0.496 -57.687,-0.68 -7.202,-0.44 -15.087,-0.831 -22.074,-2.541 1.074,-0.551 33.252,-0.966 37.396,-1.182 z"
       id="path2" />
    <path
       fill="#f3f5f4"
       d="m 703.539,695.218 c 26.115,-0.747 52.337,-0.386 78.465,-0.325 16.105,0.038 32.118,0.385 48.215,0.895 7.308,0.232 14.685,0.07 21.967,0.705 -11.433,1.429 -22.785,2.364 -34.292,2.985 q -31.462,0.439 -62.927,0.184 c -20.653,0.021 -41.468,0.634 -62.091,-0.597 -7.626,-0.455 -15.063,-1.544 -22.646,-2.354 10.971,-1.11 22.279,-1.058 33.309,-1.493 z"
       id="path3" />
    <path
       fill="#f3f5f4"
       d="m 848.658,703.883 0.574,0.336 c -1.8,2.753 -4.407,5.175 -6.713,7.527 -10.965,11.186 -22.883,19.432 -37.29,25.682 -24.161,10.483 -50.334,12.983 -75.828,5.721 -5.216,-1.485 -10.293,-3.659 -15.337,-5.642 -1.807,-0.758 -3.513,-1.781 -5.228,-2.724 9.664,2.677 19.233,4.495 29.216,5.476 27.632,2.716 57.852,1.998 81.849,-13.553 10.309,-6.681 19.302,-15.045 28.757,-22.823 z"
       id="path4" />
    <path
       fill="#f3f5f4"
       d="m 491.374,736.55 c 14.768,-0.208 30.121,0.579 44.849,1.695 -13.958,3.316 -27.091,5.618 -41.495,5.982 2.995,1.072 6.096,1.876 9.156,2.748 q 6.13,1.503 12.367,2.474 6.237,0.972 12.534,1.406 c -10.513,2.208 -27.735,5.498 -38.132,3.542 -2.39,-0.449 -5.217,-1.49 -6.455,-3.753 -0.879,-1.608 -0.727,-3.538 -0.148,-5.215 1.45,-4.206 3.246,-6.999 7.324,-8.879 z"
       id="path5" />
    <path
       fill="#f3f5f4"
       d="m 180.11,704.374 c 4.111,1.646 18.944,15.458 23.623,19.033 4.706,3.597 10.458,6.864 15.762,9.476 21.735,10.704 60.632,9.979 84.351,5.673 6.505,-1.181 12.684,-3.084 18.935,-5.178 -1.424,1.144 -3.11,2.026 -4.677,2.963 -17.295,9.061 -38.736,12.399 -58.044,10.456 q -1.443,-0.147 -2.881,-0.329 -1.439,-0.183 -2.872,-0.399 -1.434,-0.217 -2.862,-0.468 -1.428,-0.252 -2.85,-0.537 -1.421,-0.286 -2.836,-0.606 -1.414,-0.32 -2.82,-0.674 -1.406,-0.354 -2.803,-0.741 -1.398,-0.388 -2.785,-0.809 -1.387,-0.422 -2.764,-0.876 -1.377,-0.455 -2.743,-0.943 -1.365,-0.488 -2.719,-1.008 -1.353,-0.521 -2.693,-1.074 -1.341,-0.553 -2.667,-1.138 -1.327,-0.585 -2.639,-1.202 -1.312,-0.617 -2.609,-1.266 -1.297,-0.649 -2.578,-1.328 -1.281,-0.68 -2.545,-1.39 -1.264,-0.711 -2.511,-1.451 -1.246,-0.741 -2.474,-1.511 -1.229,-0.771 -2.438,-1.571 -1.21,-0.8 -2.399,-1.628 -1.19,-0.829 -2.36,-1.687 -1.169,-0.857 -2.317,-1.742 -1.149,-0.885 -2.275,-1.798 -1.127,-0.913 -2.231,-1.853 -1.105,-0.939 -2.186,-1.905 -1.082,-0.966 -2.139,-1.958 -1.058,-0.992 -2.091,-2.009 -1.034,-1.017 -2.043,-2.059 -1.008,-1.041 -1.992,-2.107 -0.983,-1.066 -1.94,-2.155 -0.957,-1.089 -1.888,-2.201 z"
       id="path6" />
    <path
       fill="#f3f5f4"
       d="m 829.442,705.208 c 2.427,-0.359 5.023,-0.268 7.481,-0.35 -15.524,15.251 -31.266,24.247 -53.411,24.819 10.316,-2.757 20.049,-6.208 29.367,-11.462 l 12.442,-7.976 c -15.235,5.185 -31.71,5.525 -47.628,4.399 17.956,-2.976 33.216,-7.598 51.749,-9.43 z"
       id="path7" />
    <path
       fill="#f3f5f4"
       d="m 191.649,704.374 c 20.126,0.541 40.062,6.467 59.721,10.326 -16.258,0.684 -31.108,0.233 -46.925,-3.932 l 6.75,4.148 c 11.507,8.327 23.334,12.066 37.142,14.482 q -1.101,0.051 -2.203,0.076 c -22.529,0.486 -38.832,-10.051 -54.485,-25.1 z"
       id="path8" />
    <path
       fill="#f3f5f4"
       d="m 345.787,705.217 c 0.955,-0.111 1.585,-0.077 2.524,0.036 l -0.456,0.711 c -15.709,9.381 -34.057,9.426 -51.73,8.849 -1.477,0.039 -3.008,0.237 -4.407,-0.313 3.21,-1.479 7.374,-1.751 10.843,-2.509 14.554,-3.181 28.287,-5.886 43.226,-6.774 z"
       id="path9" />
    <path
       fill="#f3f5f4"
       d="m 360.322,704.507 0.309,0.523 c -5.75,5.366 -11.813,10.931 -18.641,14.894 -12.986,7.538 -31.569,9.738 -46.294,9.486 l -0.246,-0.097 c 0.388,-0.578 12.498,-3.075 13.978,-3.532 19.569,-6.044 33.077,-9.99 50.894,-21.274 z"
       id="path10" />
    <path
       fill="#f3f5f4"
       d="m 680.919,705.082 c 13.806,-0.884 31.986,3.934 45.472,6.735 4.12,0.856 8.967,1.348 12.852,2.921 -21.031,1.526 -39.469,0.54 -58.324,-9.656 z"
       id="path11" />
    <path
       fill="#f3f5f4"
       d="m 669.717,704.894 c 3.266,0.989 7.487,4.682 10.62,6.43 5.371,2.994 11.209,5.571 16.895,7.915 8.673,3.573 18.047,5.839 27.192,7.87 3.099,0.688 6.414,0.971 9.437,1.891 l 0.815,0.256 c -1.349,0.127 -2.682,0.111 -4.035,0.089 -15.602,-0.249 -34.296,-3.356 -47.422,-12.351 -5.029,-3.446 -9.274,-7.746 -13.502,-12.1 z"
       id="path12" />
    <path
       fill="#f3f5f4"
       d="m 489.843,429.192 c 10.308,-0.463 20.101,0.137 30.338,1.119 3.095,0.296 6.257,0.241 9.29,0.962 l -0.791,0.504 c -6.953,0.889 -31.977,4.022 -37.34,0.501 -1.224,-0.803 -1.21,-1.795 -1.497,-3.086 z"
       id="path13" />
    <path
       fill="#f3f5f4"
       d="m 504.052,387.199 c 1.267,-0.164 2.569,-0.346 3.849,-0.347 2.95,-0.002 8.115,1.836 10.091,4.017 0.642,0.709 0.432,0.887 0.409,1.786 l -1.228,1.155 c -3.256,1.06 -8.397,2.107 -11.686,0.914 -0.842,-0.306 -1.71,-0.952 -2.015,-1.82 -0.621,-1.772 -0.062,-3.997 0.58,-5.705 z"
       id="path14" />
    <path
       fill="#f3f5f4"
       d="m 507.529,398.238 c 2.65,-0.182 6.161,-0.453 8.546,0.88 l -0.154,0.592 -1.464,0.674 c -2.781,0.304 -6.421,1.086 -8.809,-0.508 0.44,-0.93 1.034,-1.092 1.881,-1.638 z"
       id="path15" />
  </g>
</svg>
